<?xml version="1.0" encoding="UTF-8" standalone="no"?>
<!DOCTYPE svg PUBLIC "-//W3C//DTD SVG 1.1//EN" "http://www.w3.org/Graphics/SVG/1.1/DTD/svg11.dtd">
<svg width="100%" height="100%" viewBox="0 0 739 252" version="1.1" xmlns="http://www.w3.org/2000/svg" xmlns:xlink="http://www.w3.org/1999/xlink" xml:space="preserve" xmlns:serif="http://www.serif.com/" style="fill-rule:evenodd;clip-rule:evenodd;stroke-linejoin:round;stroke-miterlimit:2;">
    <path d="M9.666,86.419C10.037,83.482 11.466,80.911 13.541,79.068L98.866,3.291C102.562,0.008 107.911,-0.625 112.271,1.703L254.202,77.48C255.454,78.148 256.568,79.032 257.499,80.088C259.719,82.607 260.786,85.983 260.357,89.379L250.784,165.156C250.413,168.093 248.984,170.664 246.909,172.507L161.585,248.284C157.889,251.566 152.539,252.2 148.179,249.872L6.248,174.095C4.996,173.427 3.882,172.543 2.951,171.487C0.731,168.968 -0.336,165.592 0.093,162.196L9.666,86.419ZM25.208,151.865L77.156,151.865L83.742,99.71L31.797,99.71L25.208,151.865ZM207.98,175.487L173.727,175.487L169.399,209.751L207.98,175.487ZM144.173,220.955L149.917,175.487L59.011,175.487L144.173,220.955ZM235.242,99.71L183.3,99.71L176.711,151.865L228.653,151.865L235.242,99.71ZM52.47,76.088L86.725,76.088L91.052,41.823L52.47,76.088ZM116.276,30.619L110.535,76.088L201.439,76.088L116.276,30.619ZM152.902,151.865L159.49,99.71L107.552,99.71L100.966,151.865L152.902,151.865Z"/>
    <g>
        <path d="M361.382,75.826L351.498,154.068L396.965,154.068L394.304,175.128L325.267,175.128L337.812,75.826L361.382,75.826Z" style="fill-rule:nonzero;"/>
        <path d="M489.56,75.826L486.9,96.886L434.599,96.886L432.326,114.877L479.885,114.877L477.365,134.821L429.806,134.821L427.375,154.068L479.536,154.068L476.876,175.128L401.144,175.128L413.689,75.826L489.56,75.826Z" style="fill-rule:nonzero;"/>
        <path d="M572.963,75.826L570.302,96.886L518.001,96.886L515.728,114.877L563.287,114.877L560.768,134.821L513.209,134.821L510.777,154.068L562.939,154.068L560.278,175.128L484.547,175.128L497.091,75.826L572.963,75.826Z" style="fill-rule:nonzero;"/>
        <path d="M604.064,75.826L594.18,154.068L639.647,154.068L636.986,175.128L567.949,175.128L580.494,75.826L604.064,75.826Z" style="fill-rule:nonzero;"/>
        <path d="M737.962,175.128L712.997,175.128L709.324,157.834L668.041,157.834L660.138,175.128L636.01,175.128L685.096,75.826L713.129,75.826L737.962,175.128ZM677.08,138.168L705.114,138.168L701.545,121.153C700.413,116.132 698.68,107.764 696.348,96.049C691.161,107.671 687.361,116.039 684.948,121.153L677.08,138.168Z" style="fill-rule:nonzero;"/>
    </g>
</svg>
